<svg width="55" height="55" viewBox="0 0 55 55" fill="none" xmlns="http://www.w3.org/2000/svg">
<circle cx="27.5" cy="27.5" r="27.5" fill="white"/>
<path d="M24 28C24 25.8125 25.7812 24 28 24C30.1875 24 32 25.8125 32 28C32 30.2188 30.1875 32 28 32C25.7812 32 24 30.2188 24 28ZM28 30.5C29.375 30.5 30.5 29.4062 30.5 28C30.5 26.625 29.375 25.5 28 25.5C27.9688 25.5 27.9375 25.5 27.9062 25.5C27.9688 25.6875 28 25.8438 28 26C28 27.125 27.0938 28 26 28C25.8125 28 25.6562 28 25.5 27.9375C25.5 27.9688 25.5 28 25.5 28C25.5 29.4062 26.5938 30.5 28 30.5ZM21.9688 23.5312C23.4375 22.1562 25.4688 21 28 21C30.5 21 32.5312 22.1562 34 23.5312C35.4688 24.875 36.4375 26.5 36.9062 27.625C37 27.875 37 28.1562 36.9062 28.4062C36.4375 29.5 35.4688 31.125 34 32.5C32.5312 33.875 30.5 35 28 35C25.4688 35 23.4375 33.875 21.9688 32.5C20.5 31.125 19.5312 29.5 19.0625 28.4062C18.9688 28.1562 18.9688 27.875 19.0625 27.625C19.5312 26.5 20.5 24.875 21.9688 23.5312ZM28 22.5C25.9375 22.5 24.2812 23.4375 23 24.625C21.7812 25.75 20.9688 27.0625 20.5312 28C20.9688 28.9375 21.7812 30.2812 23 31.4062C24.2812 32.5938 25.9375 33.5 28 33.5C30.0312 33.5 31.6875 32.5938 32.9688 31.4062C34.1875 30.2812 35 28.9375 35.4375 28C35 27.0625 34.1875 25.75 32.9688 24.625C31.6875 23.4375 30.0312 22.5 28 22.5Z" fill="#20282D"/>
</svg>
