<svg width="52" height="52" viewBox="0 0 52 52" fill="none" xmlns="http://www.w3.org/2000/svg">
<g clip-path="url(#clip0_588_123)">
<path d="M46.8781 44.6726C46.4054 44.6726 46.0903 44.3574 46.0903 43.8847V14.1816C46.0903 13.5513 45.5388 12.9998 44.9085 12.9998H7.01148C6.38118 12.9998 5.82966 13.5513 5.82966 14.1816V43.8059C5.82966 44.2786 5.51451 44.5938 5.04179 44.5938C4.56906 44.5938 4.25391 44.2786 4.25391 43.8059V14.1816C4.25391 12.6059 5.43572 11.4241 7.01148 11.4241H44.9085C46.4842 11.4241 47.666 12.6059 47.666 14.1816V43.8847C47.666 44.3574 47.3509 44.6726 46.8781 44.6726Z" fill="#20282D"/>
<path d="M46.9569 19.618H5.04179C4.56906 19.618 4.25391 19.3028 4.25391 18.8301C4.25391 18.3574 4.56906 18.0422 5.04179 18.0422H46.9569C47.4297 18.0422 47.7448 18.3574 47.7448 18.8301C47.7448 19.3028 47.4297 19.618 46.9569 19.618Z" fill="#20282D"/>
<path d="M22.5333 16.3089H9.6121C9.13937 16.3089 8.82422 15.9938 8.82422 15.521C8.82422 15.0483 9.13937 14.7332 9.6121 14.7332H22.5333C23.006 14.7332 23.3212 15.0483 23.3212 15.521C23.3212 15.9938 23.006 16.3089 22.5333 16.3089Z" fill="#20282D"/>
<path d="M33.8778 16.3089H33.4051C32.9323 16.3089 32.6172 15.9938 32.6172 15.521C32.6172 15.0483 32.9323 14.7332 33.4051 14.7332H33.8778C34.3505 14.7332 34.6657 15.0483 34.6657 15.521C34.6657 15.9938 34.3505 16.3089 33.8778 16.3089Z" fill="#20282D"/>
<path d="M38.0536 16.3089H37.5808C37.1081 16.3089 36.793 15.9938 36.793 15.521C36.793 15.0483 37.1081 14.7332 37.5808 14.7332H38.0536C38.5263 14.7332 38.8415 15.0483 38.8415 15.521C38.8415 15.9938 38.5263 16.3089 38.0536 16.3089Z" fill="#20282D"/>
<path d="M42.3876 16.3089H41.9148C41.4421 16.3089 41.127 15.9938 41.127 15.521C41.127 15.0483 41.4421 14.7332 41.9148 14.7332H42.3876C42.8603 14.7332 43.1754 15.0483 43.1754 15.521C43.1754 15.9938 42.8603 16.3089 42.3876 16.3089Z" fill="#20282D"/>
<path d="M47.1932 51.3696H4.80529C2.59923 51.3696 0.787109 49.5575 0.787109 47.3514V43.8059C0.787109 43.3332 1.10226 43.0181 1.57499 43.0181H21.272C21.7447 43.0181 22.0598 43.3332 22.0598 43.8059C22.0598 44.2787 21.7447 44.5938 21.272 44.5938H2.36287V47.3514C2.36287 48.6908 3.4659 49.7938 4.80529 49.7938H47.1932C48.5326 49.7938 49.6356 48.6908 49.6356 47.3514V44.5938H30.7265C30.2538 44.5938 29.9386 44.2787 29.9386 43.8059C29.9386 43.3332 30.2538 43.0181 30.7265 43.0181H50.4235C50.8962 43.0181 51.2114 43.3332 51.2114 43.8059V47.3514C51.2114 49.5575 49.3992 51.3696 47.1932 51.3696Z" fill="#20282D"/>
<path d="M29.0729 47.509H22.8487C21.5093 47.509 20.4062 46.4059 20.4062 45.0666V43.8059C20.4062 43.3332 20.7214 43.0181 21.1941 43.0181C21.6669 43.0181 21.982 43.3332 21.982 43.8059V45.0666C21.982 45.6181 22.4547 45.9332 22.8487 45.9332H29.0729C29.6244 45.9332 29.9396 45.4605 29.9396 45.0666V43.8059C29.9396 43.3332 30.2547 43.0181 30.7275 43.0181C31.2002 43.0181 31.5153 43.3332 31.5153 43.8059V45.0666C31.5153 46.4059 30.4123 47.509 29.0729 47.509Z" fill="#20282D"/>
<path d="M22.2168 25.606H9.76835C9.29562 25.606 8.98047 25.2909 8.98047 24.8182C8.98047 24.3454 9.29562 24.0303 9.76835 24.0303H22.2168C22.6896 24.0303 23.0047 24.3454 23.0047 24.8182C23.0047 25.2909 22.6896 25.606 22.2168 25.606Z" fill="#20282D"/>
<path d="M22.2168 30.0181H9.76835C9.29562 30.0181 8.98047 29.703 8.98047 29.2303C8.98047 28.7575 9.29562 28.4424 9.76835 28.4424H22.2168C22.6896 28.4424 23.0047 28.7575 23.0047 29.2303C23.0047 29.703 22.6896 30.0181 22.2168 30.0181Z" fill="#20282D"/>
<path d="M22.2168 34.5091H9.76835C9.29562 34.5091 8.98047 34.194 8.98047 33.7212C8.98047 33.2485 9.29562 32.9333 9.76835 32.9333H22.2168C22.6896 32.9333 23.0047 33.2485 23.0047 33.7212C23.0047 34.194 22.6896 34.5091 22.2168 34.5091Z" fill="#20282D"/>
<path d="M22.2168 38.9212H9.76835C9.29562 38.9212 8.98047 38.6061 8.98047 38.1333C8.98047 37.6606 9.29562 37.3455 9.76835 37.3455H22.2168C22.6896 37.3455 23.0047 37.6606 23.0047 38.1333C23.0047 38.6061 22.6896 38.9212 22.2168 38.9212Z" fill="#20282D"/>
<path d="M22.2163 12.9998C21.9011 12.9998 21.586 12.7635 21.5072 12.4483C21.3496 12.0544 21.3496 11.7392 21.3496 11.5029C21.3496 8.115 24.1072 5.35742 27.4163 5.35742C30.7254 5.35742 33.4829 8.115 33.4829 11.5029C33.4829 11.6605 33.4829 11.818 33.4042 11.9756V12.212C33.4042 12.6847 33.089 12.9998 32.6163 12.9998C32.1436 12.9998 31.8284 12.6847 31.8284 12.212C31.8284 12.0544 31.8284 11.8968 31.9072 11.7392C31.9072 11.6605 31.9072 11.5817 31.9072 11.5029C31.9072 8.98166 29.8587 6.93318 27.4163 6.93318C24.8951 6.93318 22.9254 8.90288 22.9254 11.5029V11.9756C23.0829 12.3695 22.8466 12.8423 22.4526 12.9998C22.3739 12.9998 22.2951 12.9998 22.2163 12.9998Z" fill="#20282D"/>
<path d="M18.8288 12.9999C18.75 12.9999 18.6712 12.9999 18.5924 12.9211C18.1985 12.7635 17.9621 12.3696 18.1197 11.8969C18.1985 11.7393 18.1985 11.5817 18.1985 11.4241C18.1985 10.7938 17.7258 10.2423 16.8591 9.84837C16.5439 9.6908 16.3076 9.29686 16.3864 8.98171C16.7015 7.56352 17.1742 6.38171 17.9621 5.35746C18.1985 5.04231 18.5924 4.96352 18.9076 5.1211C19.6955 5.51504 20.4833 5.51504 20.8773 5.04231C21.5076 4.41201 21.2712 3.62413 21.0348 3.07262C20.8773 2.67868 21.0348 2.28474 21.35 2.12716C22.453 1.49686 23.6348 0.945343 24.8955 0.630191C25.2894 0.551403 25.6045 0.708979 25.8409 1.02413C26.0773 1.57565 26.6288 2.36352 27.4167 2.36352C28.047 2.36352 28.5985 1.8908 28.9924 1.02413C29.15 0.708979 29.4652 0.472615 29.8591 0.551403C31.1197 0.787767 32.3803 1.33928 33.4833 2.12716C33.7985 2.36352 33.8773 2.67868 33.7985 3.07262C33.4833 3.93928 33.5621 4.72716 33.9561 5.1211C34.35 5.51504 35.1379 5.59383 35.9258 5.27868C36.3197 5.1211 36.7136 5.27868 36.8712 5.59383C37.5015 6.69686 38.053 7.87868 38.3682 9.13928C38.447 9.53322 38.2894 9.92716 37.8955 10.0847C37.1076 10.3999 36.5561 11.0302 36.5561 11.6605C36.5561 11.7393 36.6348 11.9756 36.6348 12.1332L35.1379 12.6059C35.0591 12.2908 34.9015 11.9756 34.9015 11.6605C34.9015 10.6363 35.5318 9.61201 36.5561 8.98171C36.3197 8.27262 36.0833 7.64231 35.6894 7.01201C34.5076 7.32716 33.4045 7.01201 32.6955 6.30292C31.9864 5.59383 31.75 4.4908 31.9864 3.23019C31.3561 2.83625 30.7258 2.59989 30.0167 2.36352C29.3864 3.30898 28.3621 3.93928 27.3379 3.93928C26.3136 3.93928 25.3682 3.38777 24.6591 2.28474C23.95 2.5211 23.3197 2.75746 22.6894 3.1514C23.0045 4.33322 22.7682 5.43625 21.9803 6.22413C21.2712 7.01201 20.1682 7.24837 18.9076 6.93322C18.5924 7.48474 18.2773 8.19383 18.1197 8.90292C19.1439 9.53322 19.7742 10.5575 19.7742 11.5817C19.7742 11.9756 19.6955 12.2908 19.5379 12.5272C19.4591 12.7635 19.1439 12.9999 18.8288 12.9999Z" fill="#20282D"/>
<path d="M34.3504 25.921C33.8777 25.921 33.5625 25.6059 33.5625 25.1332V23.5574C33.5625 23.0847 33.8777 22.7695 34.3504 22.7695C34.8231 22.7695 35.1383 23.0847 35.1383 23.5574V25.1332C35.1383 25.6059 34.8231 25.921 34.3504 25.921Z" fill="#20282D"/>
<path d="M29.8584 27.2604C29.622 27.2604 29.4644 27.1816 29.3069 27.0241C29.0705 26.7877 28.9129 26.6301 28.6766 26.3938C28.519 26.1574 28.2826 25.9998 28.125 25.7635C27.8099 25.4483 27.8099 24.9756 28.125 24.6604C28.4402 24.3453 28.9129 24.3453 29.2281 24.6604C29.4644 24.8968 29.622 25.0544 29.8584 25.2907C30.0159 25.5271 30.2523 25.6847 30.4099 25.921C30.725 26.2362 30.725 26.7089 30.4099 27.0241C30.2523 27.1816 30.0947 27.2604 29.8584 27.2604Z" fill="#20282D"/>
<path d="M27.338 30.727C27.2593 30.727 27.1805 30.727 27.1805 30.727C26.8653 30.6482 26.629 30.5695 26.3138 30.5695C25.9986 30.4907 25.6835 30.4119 25.3683 30.3331C24.9744 30.2543 24.6593 29.7816 24.8168 29.3876C24.8956 28.9937 25.3683 28.6785 25.7623 28.8361C26.0774 28.9149 26.3138 28.9937 26.629 28.9937L27.5744 29.2301C27.9683 29.3088 28.2835 29.7816 28.1259 30.1755C28.0471 30.4907 27.6532 30.727 27.338 30.727Z" fill="#20282D"/>
<path d="M39.157 27.2604C38.9207 27.2604 38.7631 27.1816 38.6055 27.0241C38.2904 26.7089 38.2904 26.2362 38.6055 25.921C38.7631 25.7635 38.9994 25.5271 39.157 25.2907C39.3934 25.0544 39.551 24.818 39.7873 24.6604C40.1025 24.3453 40.5752 24.3453 40.8904 24.6604C41.2055 24.9756 41.2055 25.4483 40.8904 25.7635C40.7328 25.921 40.4964 26.1574 40.3388 26.3938C40.1025 26.6301 39.9449 26.8665 39.7085 27.0241C39.551 27.1816 39.3934 27.2604 39.157 27.2604Z" fill="#20282D"/>
<path d="M41.678 30.7272C41.3628 30.7272 40.9689 30.4909 40.8901 30.0969C40.8113 29.703 41.0477 29.2303 41.4416 29.1515L42.3871 28.9151C42.7022 28.8363 42.9386 28.8363 43.2537 28.7575C43.6477 28.6787 44.1204 28.9151 44.1992 29.309C44.278 29.703 44.0416 30.1757 43.6477 30.2545C43.3325 30.3333 43.0174 30.4121 42.7022 30.4909C42.3871 30.5696 42.1507 30.5696 41.8355 30.6484C41.8355 30.7272 41.7568 30.7272 41.678 30.7272Z" fill="#20282D"/>
<path d="M36.084 40.4968H32.7749C32.3022 40.4968 31.987 40.1816 31.987 39.7089V39.315C31.987 38.2119 31.5143 37.1877 30.5688 36.321C29.0719 34.9029 28.4415 32.8544 28.8355 30.9635C29.3082 28.7574 31.0415 27.0241 33.2476 26.5513C34.9809 26.2362 36.7931 26.6301 38.1325 27.7332C39.4719 28.8362 40.1809 30.4119 40.1809 32.1453C40.1809 33.7998 39.5506 35.2968 38.29 36.3998C37.4234 37.1877 36.8719 38.2907 36.8719 39.3938V39.7089C36.8719 40.1816 36.5567 40.4968 36.084 40.4968ZM33.5628 38.921H35.2961C35.4537 37.5029 36.084 36.2422 37.187 35.218C38.1325 34.4301 38.6052 33.4059 38.6052 32.1453C38.6052 30.8847 38.0537 29.7816 37.1082 28.9938C36.1628 28.2059 34.8234 27.8907 33.5628 28.1271C31.987 28.4422 30.7264 29.7029 30.4112 31.2786C30.0961 32.6968 30.5688 34.1938 31.6719 35.218C32.7749 36.2422 33.4052 37.5029 33.5628 38.921Z" fill="#20282D"/>
</g>
<defs>
<clipPath id="clip0_588_123">
<rect width="52" height="52" fill="white"/>
</clipPath>
</defs>
</svg>
