<svg width="51" height="51" viewBox="0 0 51 51" fill="none" xmlns="http://www.w3.org/2000/svg">
<path d="M17.4774 10.1462C15.9218 10.7338 14.8072 12.2259 14.8072 13.9843C14.8072 14.6615 14.9876 15.2917 15.2788 15.856C14.0449 16.3303 13.1621 17.52 13.1621 18.9197C13.1621 20.3198 14.0449 21.5091 15.2788 21.9838C14.9876 22.5481 14.8072 23.1783 14.8072 23.8551C14.8072 25.6139 15.9218 27.106 17.4774 27.6932C17.3541 28.0378 17.2749 28.4041 17.2749 28.7905C17.2749 30.6051 18.7506 32.0807 20.5652 32.0807C20.9749 32.0807 21.3633 31.996 21.7251 31.8594C22.2581 32.9595 23.3759 33.7259 24.678 33.7259C26.4926 33.7259 27.9683 32.2502 27.9683 30.4356V7.40379C27.9683 5.58956 26.4926 4.11353 24.678 4.11353C23.3759 4.11353 22.2581 4.88026 21.7251 5.97996C21.3633 5.8434 20.9749 5.75866 20.5652 5.75866C18.7506 5.75866 17.2749 7.23469 17.2749 9.04892C17.2749 9.4357 17.3541 9.8016 17.4774 10.1462ZM20.5652 7.40379C21.4725 7.40379 22.2103 8.1416 22.2103 9.04892H23.8555C23.8555 8.25848 23.5635 7.54115 23.0972 6.97363C23.2879 6.27637 23.9205 5.75866 24.678 5.75866C25.5853 5.75866 26.3232 6.49647 26.3232 7.40379V30.4356C26.3232 31.3429 25.5853 32.0807 24.678 32.0807C23.9205 32.0807 23.2879 31.5634 23.0972 30.8658C23.5635 30.2982 23.8555 29.5813 23.8555 28.7905H22.2103C22.2103 29.6978 21.4725 30.4356 20.5652 30.4356C19.6579 30.4356 18.9201 29.6978 18.9201 28.7905C18.9201 27.8832 19.6579 27.1453 20.5652 27.1453V25.5002C19.7639 25.5002 19.0385 25.7998 18.4678 26.277C17.3227 26.0637 16.4524 25.0612 16.4524 23.8551C16.4524 22.4947 17.5597 21.3874 18.9201 21.3874C20.2808 21.3874 21.3878 22.4947 21.3878 23.8551H23.0329C23.0329 21.5874 21.1881 19.7423 18.9201 19.7423C17.9907 19.7423 17.1416 20.064 16.4524 20.5865V20.5648C15.5451 20.5648 14.8072 19.827 14.8072 18.9197C14.8072 18.0124 15.5451 17.2746 16.4524 17.2746V17.2533C17.1416 17.7758 17.9907 18.0971 18.9201 18.0971C21.1881 18.0971 23.0329 16.2524 23.0329 13.9843H21.3878C21.3878 15.3451 20.2808 16.452 18.9201 16.452C17.5597 16.452 16.4524 15.3451 16.4524 13.9843C16.4524 12.7786 17.3227 11.7761 18.4678 11.5628C19.0385 12.04 19.7639 12.3392 20.5652 12.3392V10.694C19.6579 10.694 18.9201 9.95623 18.9201 9.04892C18.9201 8.1416 19.6579 7.40379 20.5652 7.40379Z" fill="#20282D"/>
<path d="M37.0164 5.75866C36.6067 5.75866 36.2187 5.8434 35.8568 5.97996C35.3234 4.88026 34.2057 4.11353 32.9035 4.11353C31.0889 4.11353 29.6133 5.58956 29.6133 7.40379V30.4356C29.6133 32.2502 31.0889 33.7259 32.9035 33.7259C34.2057 33.7259 35.3234 32.9595 35.8568 31.8594C36.2187 31.996 36.6067 32.0807 37.0164 32.0807C38.831 32.0807 40.3066 30.6051 40.3066 28.7905C40.3066 28.4041 40.2279 28.0378 40.1042 27.6932C41.6598 27.106 42.7743 25.6139 42.7743 23.8551C42.7743 23.1783 42.5944 22.5481 42.3032 21.9838C43.537 21.5091 44.4195 20.3198 44.4195 18.9197C44.4195 17.52 43.537 16.3303 42.3032 15.856C42.5944 15.2917 42.7743 14.6615 42.7743 13.9843C42.7743 12.2259 41.6598 10.7338 40.1042 10.1462C40.2279 9.8016 40.3066 9.4357 40.3066 9.04892C40.3066 7.23469 38.831 5.75866 37.0164 5.75866ZM41.1292 13.9843C41.1292 15.3451 40.0223 16.452 38.6615 16.452C37.3011 16.452 36.1938 15.3451 36.1938 13.9843H34.5487C34.5487 16.2524 36.3938 18.0971 38.6615 18.0971C39.5909 18.0971 40.44 17.7758 41.1292 17.2533V17.2746C42.0365 17.2746 42.7743 18.0124 42.7743 18.9197C42.7743 19.827 42.0365 20.5648 41.1292 20.5648V20.5865C40.44 20.064 39.5909 19.7423 38.6615 19.7423C36.3938 19.7423 34.5487 21.5874 34.5487 23.8551H36.1938C36.1938 22.4947 37.3011 21.3874 38.6615 21.3874C40.0223 21.3874 41.1292 22.4947 41.1292 23.8551C41.1292 25.0612 40.2588 26.0637 39.1142 26.277C38.543 25.7998 37.8176 25.5002 37.0164 25.5002V27.1453C37.9237 27.1453 38.6615 27.8832 38.6615 28.7905C38.6615 29.6978 37.9237 30.4356 37.0164 30.4356C36.1091 30.4356 35.3712 29.6978 35.3712 28.7905H33.7261C33.7261 29.5813 34.0181 30.2982 34.4844 30.8658C34.2936 31.5634 33.661 32.0807 32.9035 32.0807C31.9962 32.0807 31.2584 31.3429 31.2584 30.4356V7.40379C31.2584 6.49647 31.9962 5.75866 32.9035 5.75866C33.661 5.75866 34.2936 6.27637 34.4844 6.97363C34.0181 7.54115 33.7261 8.25848 33.7261 9.04892H35.3712C35.3712 8.1416 36.1091 7.40379 37.0164 7.40379C37.9237 7.40379 38.6615 8.1416 38.6615 9.04892C38.6615 9.95623 37.9237 10.694 37.0164 10.694V12.3392C37.8176 12.3392 38.543 12.04 39.1142 11.5628C40.2588 11.7761 41.1292 12.7786 41.1292 13.9843Z" fill="#20282D"/>
<path d="M41.7444 5.13048C37.9007 1.5177 32.8665 -0.293711 27.5833 0.03885L27.6853 1.68037C32.5127 1.38034 37.1075 3.03109 40.6182 6.32898C44.1306 9.62969 46.0653 14.102 46.0653 18.9197C46.0653 24.7254 43.1715 30.1091 38.324 33.3214C36.652 34.4299 35.3868 36.0112 34.6072 37.8387H22.9415C22.1511 35.998 20.8811 34.4054 19.2062 33.2869C14.2106 29.948 11.34 24.372 11.5268 18.3686L9.88247 18.3176C9.67763 24.8917 12.8221 30.9991 18.2925 34.6541C19.5006 35.4618 20.4654 36.5615 21.1377 37.8387H18.9206V39.4838H21.794C21.9535 40.0168 22.0812 40.563 22.1458 41.129H20.5658V42.7741H22.2109V45.2418C22.2109 45.6968 22.5796 46.0643 23.0335 46.0643H23.856C23.856 48.7863 26.0695 50.9997 28.7914 50.9997C31.5134 50.9997 33.7268 48.7863 33.7268 46.0643H34.5494C35.0036 46.0643 35.372 45.6968 35.372 45.2418V42.7741H37.0171V41.129H35.4298C35.488 40.5638 35.6041 40.016 35.7603 39.4838H38.6622V37.8387H36.4094C37.0721 36.5755 38.0312 35.4895 39.2334 34.6934C44.5411 31.1734 47.7104 25.2773 47.7104 18.9197C47.7104 13.7196 45.5355 8.69306 41.7444 5.13048ZM28.7914 49.3546C26.9768 49.3546 25.5012 47.879 25.5012 46.0643H32.0817C32.0817 47.879 30.6061 49.3546 28.7914 49.3546ZM33.7268 44.4192H23.856V42.7741H33.7268V44.4192ZM33.7855 41.129H23.7902C23.7351 40.5691 23.6464 40.0188 23.5114 39.4838H34.0413C33.9104 40.018 33.8345 40.5707 33.7855 41.129Z" fill="#20282D"/>
<path d="M9.04913 5.75869C10.8638 5.75869 12.3394 7.23473 12.3394 9.04895C12.3394 9.50401 12.7081 9.87151 13.162 9.87151C13.6162 9.87151 13.9845 9.50401 13.9845 9.04895C13.9845 7.23473 15.4602 5.75869 17.2748 5.75869C17.729 5.75869 18.0973 5.39118 18.0973 4.93612C18.0973 4.48146 17.729 4.11356 17.2748 4.11356C15.4602 4.11356 13.9845 2.63792 13.9845 0.823297C13.9845 0.368638 13.6162 0.000732422 13.162 0.000732422C12.7081 0.000732422 12.3394 0.368638 12.3394 0.823297C12.3394 2.63792 10.8638 4.11356 9.04913 4.11356C8.59527 4.11356 8.22656 4.48146 8.22656 4.93612C8.22656 5.39118 8.59527 5.75869 9.04913 5.75869ZM13.162 3.54845C13.5274 4.09789 14.0002 4.57103 14.5496 4.93612C14.0002 5.30162 13.5274 5.77435 13.162 6.3238C12.7969 5.77435 12.3237 5.30162 11.7743 4.93612C12.3237 4.57103 12.7969 4.09789 13.162 3.54845Z" fill="#20282D"/>
<path d="M12.3392 13.9845C12.7935 13.9845 13.1618 13.617 13.1618 13.162C13.1618 12.7073 12.7935 12.3394 12.3392 12.3394C10.5246 12.3394 9.04897 10.8638 9.04897 9.04913C9.04897 8.59447 8.68067 8.22656 8.22641 8.22656C7.77255 8.22656 7.40384 8.59447 7.40384 9.04913C7.40384 10.8638 5.9282 12.3394 4.11358 12.3394C3.65972 12.3394 3.29102 12.7073 3.29102 13.162C3.29102 13.617 3.65972 13.9845 4.11358 13.9845C5.9282 13.9845 7.40384 15.4606 7.40384 17.2748C7.40384 17.7298 7.77255 18.0973 8.22641 18.0973C8.68067 18.0973 9.04897 17.7298 9.04897 17.2748C9.04897 15.4606 10.5246 13.9845 12.3392 13.9845ZM8.22641 14.5496C7.86131 14.0002 7.38818 13.5274 6.83873 13.162C7.38818 12.7969 7.86051 12.3237 8.22641 11.7743C8.5919 12.3237 9.06464 12.7961 9.61408 13.162C9.06464 13.5274 8.5919 14.0002 8.22641 14.5496Z" fill="#20282D"/>
</svg>
