<svg width="50" height="50" viewBox="0 0 50 50" fill="none" xmlns="http://www.w3.org/2000/svg">
<g clip-path="url(#clip0_588_94)">
<path d="M17.1875 17.9688H11.7188V12.5C11.7188 12.2928 11.6364 12.0941 11.4899 11.9476C11.3434 11.8011 11.1447 11.7188 10.9375 11.7188C9.54685 11.7188 8.18743 12.1311 7.03115 12.9037C5.87487 13.6763 4.97365 14.7745 4.44148 16.0593C3.9093 17.3441 3.77005 18.7578 4.04136 20.1217C4.31266 21.4857 4.98232 22.7385 5.96566 23.7218C6.949 24.7052 8.20185 25.3748 9.56577 25.6461C10.9297 25.9175 12.3435 25.7782 13.6282 25.246C14.913 24.7138 16.0112 23.8126 16.7838 22.6564C17.5564 21.5001 17.9688 20.1407 17.9688 18.75C17.9688 18.5428 17.8864 18.3441 17.7399 18.1976C17.5934 18.0511 17.3947 17.9688 17.1875 17.9688ZM10.1563 13.3367V18.4266L6.5625 22.0203C5.99207 21.2621 5.62919 20.3683 5.50967 19.427C5.39015 18.4857 5.51812 17.5295 5.88096 16.6528C6.24379 15.7761 6.82895 15.0091 7.57869 14.4276C8.32843 13.8461 9.21684 13.4701 10.1563 13.3367ZM10.9375 24.2188C9.75807 24.2187 8.6107 23.8348 7.66875 23.125L11.2625 19.5313H16.3523C16.1627 20.8324 15.5114 22.022 14.5172 22.8826C13.523 23.7432 12.2524 24.2175 10.9375 24.2188Z" fill="#20282D"/>
<path d="M14.0625 16.4062H20.3125C20.5197 16.4062 20.7184 16.3239 20.8649 16.1774C21.0114 16.0309 21.0938 15.8322 21.0938 15.625C21.0915 13.7609 20.35 11.9738 19.0318 10.6557C17.7137 9.33754 15.9266 8.59602 14.0625 8.59375C13.8553 8.59375 13.6566 8.67606 13.5101 8.82257C13.3636 8.96909 13.2812 9.1678 13.2812 9.375V15.625C13.2812 15.8322 13.3636 16.0309 13.5101 16.1774C13.6566 16.3239 13.8553 16.4062 14.0625 16.4062ZM14.8438 10.2117C16.0115 10.3824 17.093 10.9254 17.9276 11.7599C18.7621 12.5945 19.3051 13.676 19.4758 14.8438H14.8438V10.2117Z" fill="#20282D"/>
<path d="M30.4688 20.3125C28.46 20.3125 26.4964 20.9082 24.8262 22.0241C23.1561 23.1401 21.8543 24.7263 21.0856 26.5821C20.3169 28.4379 20.1158 30.48 20.5077 32.4501C20.8995 34.4203 21.8668 36.2299 23.2872 37.6503C24.7076 39.0707 26.5172 40.038 28.4874 40.4299C30.4575 40.8217 32.4996 40.6206 34.3554 39.8519C36.2112 39.0832 37.7974 37.7814 38.9134 36.1113C40.0294 34.4411 40.625 32.4775 40.625 30.4688C40.6219 27.7761 39.5509 25.1946 37.6469 23.2906C35.7429 21.3866 33.1614 20.3156 30.4688 20.3125ZM26.5625 27.3438V22.8234C27.0619 22.5676 27.5853 22.3614 28.125 22.2078V27.3438H26.5625ZM35.9375 28.9063V30.4688H25V28.9063H35.9375ZM32.8125 27.3438V22.2078C33.3522 22.3614 33.8756 22.5676 34.375 22.8234V27.3438H32.8125ZM31.25 21.9148V27.3438H29.6875V21.9148C29.9453 21.8914 30.2047 21.875 30.4688 21.875C30.7328 21.875 30.9922 21.8914 31.25 21.9148ZM25 23.8445V27.3438H24.2188C24.0116 27.3438 23.8128 27.4261 23.6663 27.5726C23.5198 27.7191 23.4375 27.9178 23.4375 28.125V31.25C23.4375 31.4572 23.5198 31.6559 23.6663 31.8024C23.8128 31.9489 24.0116 32.0313 24.2188 32.0313H36.7188C36.926 32.0313 37.1247 31.9489 37.2712 31.8024C37.4177 31.6559 37.5 31.4572 37.5 31.25V28.125C37.5 27.9178 37.4177 27.7191 37.2712 27.5726C37.1247 27.4261 36.926 27.3438 36.7188 27.3438H35.9375V23.8445C37.3362 24.9931 38.3344 26.5557 38.7887 28.3076C39.243 30.0594 39.1299 31.9102 38.4656 33.5938H22.4719C21.8076 31.9102 21.6945 30.0594 22.1488 28.3076C22.6031 26.5557 23.6014 24.9931 25 23.8445ZM30.4688 39.0625C29.0394 39.061 27.633 38.703 26.3769 38.0209C25.1208 37.3389 24.0546 36.3542 23.275 35.1563H37.6625C36.8829 36.3542 35.8167 37.3389 34.5606 38.0209C33.3045 38.703 31.8981 39.061 30.4688 39.0625Z" fill="#20282D"/>
<path d="M48.1805 43.1695L44.8008 39.7898C44.957 39.4956 45.0151 39.1592 44.9666 38.8296C44.9182 38.5 44.7656 38.1946 44.5313 37.9578L42.543 35.9695C43.5006 33.8878 43.8994 31.5926 43.7001 29.3099C43.5007 27.0272 42.7102 24.8358 41.4063 22.9516V3.125C41.4063 2.5034 41.1593 1.90726 40.7198 1.46772C40.2802 1.02818 39.6841 0.78125 39.0625 0.78125H3.125C2.5034 0.78125 1.90726 1.02818 1.46772 1.46772C1.02818 1.90726 0.78125 2.5034 0.78125 3.125V32.8125C0.78125 33.4341 1.02818 34.0302 1.46772 34.4698C1.90726 34.9093 2.5034 35.1563 3.125 35.1563H18.0578C18.6949 36.859 19.6761 38.4122 20.9402 39.7189C22.2043 41.0256 23.7241 42.0577 25.4048 42.7508C27.0856 43.4439 28.8911 43.7832 30.7088 43.7474C32.5265 43.7117 34.3174 43.3017 35.9695 42.543L37.9578 44.5313C38.1927 44.7687 38.4984 44.9234 38.8288 44.972C39.1592 45.0206 39.4965 44.9605 39.7898 44.8008L43.1695 48.1805C43.834 48.845 44.7353 49.2183 45.675 49.2183C46.6147 49.2183 47.516 48.845 48.1805 48.1805C48.845 47.516 49.2183 46.6147 49.2183 45.675C49.2183 44.7353 48.845 43.834 48.1805 43.1695ZM3.125 2.34375H39.0625C39.2697 2.34375 39.4684 2.42606 39.6149 2.57257C39.7614 2.71909 39.8438 2.9178 39.8438 3.125V5.46875H2.34375V3.125C2.34375 2.9178 2.42606 2.71909 2.57257 2.57257C2.71909 2.42606 2.9178 2.34375 3.125 2.34375ZM3.125 33.5938C2.9178 33.5938 2.71909 33.5114 2.57257 33.3649C2.42606 33.2184 2.34375 33.0197 2.34375 32.8125V7.03125H39.8438V21.0711C38.7131 19.9475 37.3901 19.036 35.9375 18.3797V9.375C35.9375 9.1678 35.8552 8.96909 35.7087 8.82257C35.5622 8.67606 35.3635 8.59375 35.1563 8.59375H32.0313C31.8241 8.59375 31.6253 8.67606 31.4788 8.82257C31.3323 8.96909 31.25 9.1678 31.25 9.375V17.2273C30.9898 17.2117 30.7328 17.1875 30.4688 17.1875C30.2047 17.1875 29.9477 17.2117 29.6875 17.2273V14.0625C29.6875 13.8553 29.6052 13.6566 29.4587 13.5101C29.3122 13.3636 29.1135 13.2813 28.9063 13.2813H25.7813C25.5741 13.2813 25.3753 13.3636 25.2288 13.5101C25.0823 13.6566 25 13.8553 25 14.0625V18.3797C22.1746 19.642 19.883 21.8576 18.5262 24.6389C17.1694 27.4202 16.8338 30.59 17.5781 33.5938H3.125ZM34.375 17.7758C33.8622 17.6211 33.3404 17.498 32.8125 17.407V10.1563H34.375V17.7758ZM28.125 17.407C27.5971 17.498 27.0753 17.6211 26.5625 17.7758V14.8438H28.125V17.407ZM18.75 30.4688C18.75 28.151 19.4373 25.8853 20.725 23.9582C22.0126 22.031 23.8429 20.529 25.9842 19.642C28.1255 18.7551 30.4818 18.523 32.755 18.9752C35.0282 19.4273 37.1163 20.5434 38.7552 22.1823C40.3941 23.8212 41.5102 25.9093 41.9623 28.1825C42.4145 30.4558 42.1824 32.812 41.2955 34.9533C40.4085 37.0946 38.9065 38.9249 36.9793 40.2125C35.0522 41.5002 32.7865 42.1875 30.4688 42.1875C27.3618 42.184 24.3832 40.9482 22.1862 38.7513C19.9893 36.5543 18.7535 33.5757 18.75 30.4688ZM37.4078 41.7719C39.1832 40.6777 40.6777 39.1832 41.7719 37.4078L43.4266 39.0625L39.0625 43.4266L37.4078 41.7719ZM45.675 47.6563C45.4147 47.6569 45.1569 47.6059 44.9165 47.5063C44.676 47.4067 44.4578 47.2603 44.2742 47.0758L40.9484 43.75L43.75 40.9484L47.0758 44.2742C47.3528 44.5513 47.5414 44.9043 47.6179 45.2886C47.6943 45.6729 47.655 46.0712 47.5051 46.4331C47.3552 46.7951 47.1013 47.1045 46.7755 47.3222C46.4498 47.5399 46.0668 47.6562 45.675 47.6563Z" fill="#20282D"/>
<path d="M14.0625 27.3438H4.6875C4.4803 27.3438 4.28159 27.4261 4.13507 27.5726C3.98856 27.7191 3.90625 27.9178 3.90625 28.125V31.25C3.90625 31.4572 3.98856 31.6559 4.13507 31.8024C4.28159 31.9489 4.4803 32.0312 4.6875 32.0312H14.0625C14.2697 32.0312 14.4684 31.9489 14.6149 31.8024C14.7614 31.6559 14.8438 31.4572 14.8438 31.25V28.125C14.8438 27.9178 14.7614 27.7191 14.6149 27.5726C14.4684 27.4261 14.2697 27.3438 14.0625 27.3438ZM13.2812 30.4688H5.46875V28.9062H13.2812V30.4688Z" fill="#20282D"/>
</g>
<defs>
<clipPath id="clip0_588_94">
<rect width="50" height="50" fill="white"/>
</clipPath>
</defs>
</svg>
