<svg width="52" height="52" viewBox="0 0 52 52" fill="none" xmlns="http://www.w3.org/2000/svg">
<path d="M25.1875 5.22539V3.28687C25.1875 2.83816 25.5513 2.47437 26 2.47437C26.4487 2.47437 26.8125 2.83816 26.8125 3.28687V5.22539C26.8125 5.67409 26.4487 6.03789 26 6.03789C25.5513 6.03789 25.1875 5.67419 25.1875 5.22539ZM19.0893 7.29483C19.2398 7.55544 19.5129 7.70118 19.7937 7.70118C19.9315 7.70118 20.0713 7.66604 20.1993 7.5922C20.5878 7.36785 20.721 6.8709 20.4966 6.48233L19.5274 4.8035C19.3031 4.41482 18.8061 4.28197 18.4175 4.50612C18.029 4.73047 17.8958 5.22742 18.1202 5.616L19.0893 7.29483ZM13.1639 11.1669L14.8427 12.1361C14.9707 12.21 15.1104 12.2451 15.2483 12.2451C15.5291 12.2451 15.8022 12.0993 15.9527 11.8387C16.1771 11.4502 16.0439 10.9532 15.6554 10.7289L13.9765 9.75965C13.5879 9.53519 13.091 9.66834 12.8666 10.057C12.6422 10.4456 12.7753 10.9425 13.1639 11.1669ZM31.8008 7.5923C31.9288 7.66624 32.0685 7.70128 32.2064 7.70128C32.4872 7.70128 32.7603 7.55554 32.9108 7.29493L33.88 5.6161C34.1044 5.22742 33.9712 4.73058 33.5827 4.50622C33.194 4.28177 32.697 4.41492 32.4728 4.8036L31.5036 6.48243C31.2791 6.87101 31.4123 7.36795 31.8008 7.5923ZM36.7517 12.2452C36.8895 12.2452 37.0293 12.21 37.1572 12.1362L38.8361 11.167C39.2247 10.9426 39.3578 10.4457 39.1335 10.0571C38.9091 9.66855 38.4122 9.5355 38.0236 9.75975L36.3447 10.729C35.9562 10.9533 35.823 11.4503 36.0474 11.8388C36.1979 12.0994 36.471 12.2452 36.7517 12.2452ZM40.5496 36.01C40.2961 36.9537 39.9515 37.8681 39.52 38.7436H41.935C42.2337 38.7436 42.5084 38.9076 42.6502 39.1705L43.7827 41.2717H45.0114C45.3549 40.2134 46.3498 39.4459 47.5211 39.4459C48.9759 39.4459 50.1594 40.6294 50.1594 42.0842C50.1594 43.5388 48.9759 44.7224 47.5211 44.7224C46.3498 44.7224 45.3549 43.9549 45.0115 42.8967H43.2977C42.9989 42.8967 42.7243 42.7326 42.5825 42.4697L41.45 40.3686H39.3936L40.0848 41.925C40.2212 42.2321 40.1545 42.5916 39.9167 42.8293L36.736 46.0102C36.4983 46.2478 36.1389 46.3146 35.8317 46.1782L33.5181 45.1507C32.3853 45.8044 31.1772 46.3052 29.9164 46.6438L29.0076 49.0048C28.8869 49.3186 28.5855 49.5254 28.2493 49.5254H23.751C23.4148 49.5254 23.1135 49.3185 22.9927 49.0048L22.0836 46.6432C20.8237 46.3047 19.6158 45.8039 18.4831 45.1503L16.1685 46.1782C15.8613 46.3147 15.502 46.2479 15.2642 46.0102L12.0834 42.8294C11.8457 42.5918 11.7789 42.2323 11.9153 41.9251L12.6066 40.3686H10.5501L9.41759 42.4697C9.2758 42.7326 9.00118 42.8967 8.70238 42.8967H6.98862C6.64513 43.9549 5.65023 44.7224 4.47901 44.7224C3.02423 44.7224 1.84072 43.5389 1.84072 42.0842C1.84072 40.6294 3.02423 39.4459 4.47901 39.4459C5.65023 39.4459 6.64523 40.2134 6.98872 41.2717H8.21742L9.34995 39.1705C9.49173 38.9076 9.76635 38.7436 10.0651 38.7436H12.4793C12.048 37.8683 11.7035 36.9538 11.4499 36.0098L9.08883 35.1009C8.7751 34.9803 8.56822 34.6788 8.56822 34.3427V32.9059H5.9605C5.61702 33.9642 4.62211 34.7317 3.45079 34.7317C1.99601 34.7318 0.8125 33.5482 0.8125 32.0935C0.8125 30.6389 1.99601 29.4553 3.45079 29.4553C4.62211 29.4553 5.61702 30.2228 5.9605 31.281H8.56822V29.8444C8.56822 29.5083 8.7752 29.2069 9.08883 29.0862L11.4503 28.1772C11.7038 27.2331 12.0485 26.3184 12.4802 25.4427H10.0651C9.76635 25.4427 9.49173 25.2787 9.34995 25.0158L8.21742 22.9146H6.98872C6.64523 23.9729 5.65033 24.7404 4.47911 24.7404C3.02433 24.7404 1.84082 23.5569 1.84082 22.1021C1.84082 20.6475 3.02433 19.4638 4.47911 19.4638C5.65033 19.4638 6.64523 20.2314 6.98872 21.2896H8.70248C9.00128 21.2896 9.27591 21.4537 9.41769 21.7166L10.5502 23.8177H12.6063L11.9154 22.2622C11.779 21.9551 11.8457 21.5956 12.0834 21.3579L15.2641 18.1769C15.5018 17.9393 15.8613 17.8726 16.1684 18.0089L17.2277 18.4793C17.0635 17.8613 16.9578 17.1349 16.9578 16.2371C16.9578 11.2512 21.0141 7.19489 26.0001 7.19489C30.986 7.19489 35.0423 11.2512 35.0423 16.2371C35.0423 17.1255 34.9405 17.8507 34.7736 18.4788L35.8316 18.009C36.1386 17.8727 36.4981 17.9393 36.7359 18.177L39.9167 21.3578C40.1544 21.5954 40.2212 21.9549 40.0848 22.2621L39.3939 23.8178H41.45L42.5825 21.7167C42.7243 21.4538 42.9989 21.2897 43.2977 21.2897H45.0115C45.355 20.2315 46.3499 19.4639 47.5211 19.4639C48.9759 19.4639 50.1594 20.6475 50.1594 22.1022C50.1594 23.557 48.9759 24.7405 47.5211 24.7405C46.3498 24.7405 45.3549 23.9731 45.0114 22.9147H43.7826L42.6501 25.0159C42.5083 25.2788 42.2337 25.4428 41.9349 25.4428H39.5204C39.952 26.3184 40.2966 27.2332 40.5504 28.1775L42.9114 29.0863C43.225 29.2069 43.432 29.5084 43.432 29.8445V31.2811H46.0396C46.3831 30.2229 47.378 29.4554 48.5492 29.4554C50.004 29.4554 51.1875 30.6389 51.1875 32.0936C51.1875 33.5484 50.004 34.7319 48.5492 34.7319C47.3779 34.7319 46.383 33.9644 46.0395 32.9061H43.4319V34.3429C43.4319 34.679 43.2249 34.9804 42.9113 35.1011L40.5496 36.01ZM47.5359 32.0935C47.5359 32.6522 47.9905 33.1068 48.5492 33.1068C49.1079 33.1068 49.5625 32.6522 49.5625 32.0935C49.5625 31.5349 49.1079 31.0803 48.5492 31.0803C47.9905 31.0803 47.5359 31.5349 47.5359 32.0935ZM46.5077 22.102C46.5077 22.6607 46.9623 23.1153 47.521 23.1153C48.0797 23.1153 48.5343 22.6607 48.5343 22.102C48.5343 21.5433 48.0797 21.0887 47.521 21.0887C46.9622 21.0888 46.5077 21.5433 46.5077 22.102ZM5.4923 22.102C5.4923 21.5433 5.0377 21.0887 4.47901 21.0887C3.92031 21.0887 3.46572 21.5433 3.46572 22.102C3.46572 22.6607 3.92031 23.1153 4.47901 23.1153C5.0377 23.1153 5.4923 22.6607 5.4923 22.102ZM4.46408 32.0935C4.46408 31.5349 4.00948 31.0803 3.45079 31.0803C2.89209 31.0803 2.4375 31.5349 2.4375 32.0935C2.4375 32.6522 2.89209 33.1068 3.45079 33.1068C4.00948 33.1068 4.46408 32.6522 4.46408 32.0935ZM5.4923 42.0842C5.4923 41.5255 5.0377 41.0709 4.47901 41.0709C3.92031 41.0709 3.46572 41.5255 3.46572 42.0842C3.46572 42.6428 3.92031 43.0974 4.47901 43.0974C5.0377 43.0974 5.4923 42.6428 5.4923 42.0842ZM46.5077 42.0842C46.5077 42.6428 46.9623 43.0974 47.521 43.0974C48.0797 43.0974 48.5343 42.6428 48.5343 42.0842C48.5343 41.5255 48.0797 41.0709 47.521 41.0709C46.9622 41.0709 46.5077 41.5255 46.5077 42.0842ZM18.5827 16.2371C18.5827 17.685 18.8935 18.5667 19.3601 19.4455C19.5011 19.7109 19.6546 19.9732 19.8172 20.251C20.5867 21.5661 21.5312 23.1805 21.839 26.4594H23.7663V19.0226H22.6664C21.1639 19.0226 19.9415 17.8001 19.9415 16.2976C19.9415 14.7951 21.1639 13.5727 22.6664 13.5727C24.1689 13.5727 25.3913 14.7951 25.3913 16.2976V17.3976H26.6087V16.2976C26.6087 14.7951 27.8311 13.5727 29.3336 13.5727C30.8361 13.5727 32.0585 14.7951 32.0585 16.2976C32.0585 17.8001 30.8361 19.0226 29.3336 19.0226H28.2337V26.4594H30.1609C30.4686 23.1805 31.4133 21.5662 32.1827 20.2511C32.8724 19.0723 33.4172 18.1413 33.4172 16.2372C33.4172 12.1473 30.0898 8.81999 26 8.81999C21.9101 8.81989 18.5827 12.1472 18.5827 16.2371ZM23.7663 16.2976C23.7663 15.6911 23.2729 15.1977 22.6664 15.1977C22.0599 15.1977 21.5665 15.6911 21.5665 16.2976C21.5665 16.9042 22.0599 17.3976 22.6664 17.3976H23.7663V16.2976ZM26.6087 19.0226H25.3913V26.4594H26.6087V19.0226ZM21.8985 28.0843V28.6092C21.8985 28.8937 22.1388 29.134 22.4233 29.134H29.5766C29.8611 29.134 30.1014 28.8937 30.1014 28.6092V28.0843H21.8985ZM24.6522 33.9587C24.6522 34.2432 24.8925 34.4835 25.1769 34.4835H26.9125C27.197 34.4835 27.4373 34.2432 27.4373 33.9587V33.4338H24.6522V33.9587ZM28.8088 30.759H23.2806V31.2839C23.2806 31.5684 23.521 31.8087 23.8054 31.8087H28.284C28.5685 31.8087 28.8088 31.5684 28.8088 31.2839V30.759ZM20.2491 26.9426C18.9855 28.3452 18.2818 30.1573 18.2818 32.0935C18.2818 36.3494 21.7441 39.8118 26 39.8118C30.2559 39.8118 33.7182 36.3494 33.7182 32.0935C33.7182 30.1573 33.0144 28.3451 31.7508 26.9425C31.7419 27.0589 31.7337 27.1771 31.7265 27.2984V28.6093C31.7265 29.4901 31.1936 30.2479 30.4338 30.5798V31.2841C30.4338 32.1948 29.8636 32.9732 29.0623 33.2859V33.9589C29.0623 35.1444 28.0979 36.1087 26.9125 36.1087H25.1769C23.9915 36.1087 23.0272 35.1443 23.0272 33.9589V33.2859C22.2258 32.9732 21.6557 32.1948 21.6557 31.2841V30.615C20.8489 30.305 20.2736 29.524 20.2736 28.6094V27.2993C20.2663 27.1776 20.2581 27.0592 20.2491 26.9426ZM29.3336 17.3976C29.9401 17.3976 30.4335 16.9042 30.4335 16.2976C30.4335 15.6911 29.9401 15.1977 29.3336 15.1977C28.7271 15.1977 28.2337 15.6911 28.2337 16.2976V17.3976H29.3336ZM39.5734 34.6445L41.8069 33.7848V30.4022L39.5741 29.5428C39.3242 29.4466 39.1376 29.2332 39.0756 28.9726C38.7462 27.5883 38.1999 26.2707 37.452 25.0562C37.3115 24.8281 37.2925 24.5452 37.4012 24.3004L38.373 22.1122L35.9811 19.7204L33.8102 20.6845C33.736 20.8136 33.6609 20.9423 33.5852 21.0716C32.99 22.0886 32.3805 23.1319 32.0162 24.945C34.1367 26.7258 35.3431 29.3031 35.3431 32.0934C35.3431 37.2453 31.1518 41.4367 25.9999 41.4367C20.848 41.4367 16.6567 37.2453 16.6567 32.0934C16.6567 29.3032 17.8631 26.7259 19.9836 24.9451C19.6193 23.1319 19.0098 22.0885 18.4146 21.0715C18.3404 20.9446 18.265 20.8152 18.1901 20.6847L16.0186 19.7203L13.6268 22.1122L14.5989 24.3009C14.7077 24.5457 14.6887 24.8285 14.5481 25.0567C13.8001 26.2713 13.2539 27.5887 12.9248 28.9722C12.8629 29.2328 12.6763 29.4462 12.4263 29.5424L10.193 30.402V33.7847L12.4258 34.6441C12.6758 34.7403 12.8623 34.9535 12.9243 35.2143C13.2538 36.5988 13.8 37.9164 14.5478 39.1306C14.6884 39.3588 14.7074 39.6416 14.5986 39.8864L13.6268 42.0746L16.0187 44.4664L18.2077 43.4942C18.4525 43.3855 18.7352 43.4044 18.9634 43.5449C20.1782 44.2928 21.4955 44.839 22.8788 45.1682C23.1394 45.2303 23.3527 45.4167 23.4489 45.6668L24.3086 47.9002H27.6912L28.5506 45.6675C28.6468 45.4174 28.8602 45.231 29.1208 45.1689C30.5051 44.8395 31.8228 44.2933 33.0371 43.5454C33.2653 43.4049 33.5479 43.3859 33.7929 43.4947L35.9811 44.4664L38.3729 42.0745L37.4007 39.8856C37.2919 39.6408 37.3109 39.358 37.4515 39.1299C38.1994 37.9152 38.7455 36.5978 39.0747 35.2146C39.137 34.9541 39.3235 34.7407 39.5734 34.6445Z" fill="#20282D"/>
</svg>
